<svg width="31" height="37" viewBox="0 0 31 37" fill="none" xmlns="http://www.w3.org/2000/svg">
<path d="M11.7195 7.13385L12.7735 10.0607C13.3518 11.6653 14.2769 13.1225 15.4829 14.3285C16.6889 15.5345 18.1462 16.4597 19.7507 17.038L22.6776 18.0919C22.7354 18.1131 22.7853 18.1515 22.8205 18.202C22.8558 18.2525 22.8747 18.3125 22.8747 18.3741C22.8747 18.4357 22.8558 18.4957 22.8205 18.5462C22.7853 18.5967 22.7354 18.6351 22.6776 18.6563L19.7507 19.7102C18.1462 20.2885 16.6889 21.2137 15.4829 22.4197C14.2769 23.6257 13.3518 25.0829 12.7735 26.6875L11.7195 29.6143C11.6983 29.6721 11.6599 29.722 11.6094 29.7573C11.559 29.7925 11.4989 29.8114 11.4373 29.8114C11.3758 29.8114 11.3157 29.7925 11.2652 29.7573C11.2148 29.722 11.1763 29.6721 11.1551 29.6143L10.1012 26.6875C9.52291 25.0829 8.59777 23.6257 7.39175 22.4197C6.18572 21.2137 4.7285 20.2885 3.12396 19.7102L0.197083 18.6563C0.139289 18.6351 0.0893956 18.5967 0.0541484 18.5462C0.0189013 18.4957 0 18.4357 0 18.3741C0 18.3125 0.0189013 18.2525 0.0541484 18.202C0.0893956 18.1515 0.139289 18.1131 0.197083 18.0919L3.12396 17.038C4.7285 16.4597 6.18572 15.5345 7.39175 14.3285C8.59777 13.1225 9.52291 11.6653 10.1012 10.0607L11.1551 7.13385C11.1758 7.07547 11.214 7.02492 11.2645 6.98916C11.315 6.9534 11.3754 6.9342 11.4373 6.9342C11.4992 6.9342 11.5596 6.9534 11.6102 6.98916C11.6607 7.02492 11.6989 7.07547 11.7195 7.13385ZM24.8944 0.100162L25.4286 1.58197C25.7217 2.39437 26.1902 3.13218 26.8009 3.74287C27.4116 4.35357 28.1494 4.82213 28.9618 5.11522L30.4436 5.64941C30.473 5.6601 30.4984 5.67956 30.5163 5.70515C30.5342 5.73075 30.5438 5.76123 30.5438 5.79247C30.5438 5.82372 30.5342 5.8542 30.5163 5.87979C30.4984 5.90539 30.473 5.92485 30.4436 5.93554L28.9618 6.46972C28.1494 6.76281 27.4116 7.23138 26.8009 7.84208C26.1902 8.45277 25.7217 9.19057 25.4286 10.003L24.8944 11.4848C24.8837 11.5141 24.8642 11.5395 24.8387 11.5574C24.8131 11.5753 24.7826 11.5849 24.7513 11.5849C24.7201 11.5849 24.6896 11.5753 24.664 11.5574C24.6384 11.5395 24.619 11.5141 24.6083 11.4848L24.0741 10.003C23.781 9.19057 23.3124 8.45277 22.7017 7.84208C22.091 7.23138 21.3532 6.76281 20.5408 6.46972L19.059 5.93554C19.0297 5.92485 19.0043 5.90539 18.9864 5.87979C18.9685 5.8542 18.9589 5.82372 18.9589 5.79247C18.9589 5.76123 18.9685 5.73075 18.9864 5.70515C19.0043 5.67956 19.0297 5.6601 19.059 5.64941L20.5408 5.11522C21.3532 4.82213 22.091 4.35357 22.7017 3.74287C23.3124 3.13218 23.781 2.39437 24.0741 1.58197L24.6083 0.100162C24.619 0.0708052 24.6384 0.0454477 24.664 0.0275295C24.6896 0.00961134 24.7201 0 24.7513 0C24.7826 0 24.8131 0.00961134 24.8387 0.0275295C24.8642 0.0454477 24.8837 0.0708052 24.8944 0.100162ZM24.8944 25.2647L25.4286 26.7465C25.7217 27.5589 26.1902 28.2967 26.8009 28.9074C27.4116 29.5181 28.1494 29.9867 28.9618 30.2798L30.4436 30.814C30.473 30.8247 30.4984 30.8441 30.5163 30.8697C30.5342 30.8953 30.5438 30.9258 30.5438 30.957C30.5438 30.9883 30.5342 31.0188 30.5163 31.0444C30.4984 31.0699 30.473 31.0894 30.4436 31.1001L28.9618 31.6343C28.1494 31.9274 27.4116 32.3959 26.8009 33.0066C26.1902 33.6173 25.7217 34.3551 25.4286 35.1675L24.8944 36.6493C24.8837 36.6787 24.8642 36.7041 24.8387 36.722C24.8131 36.7399 24.7826 36.7495 24.7513 36.7495C24.7201 36.7495 24.6896 36.7399 24.664 36.722C24.6384 36.7041 24.619 36.6787 24.6083 36.6493L24.0741 35.1675C23.781 34.3551 23.3124 33.6173 22.7017 33.0066C22.091 32.3959 21.3532 31.9274 20.5408 31.6343L19.059 31.1001C19.0297 31.0894 19.0043 31.0699 18.9864 31.0444C18.9685 31.0188 18.9589 30.9883 18.9589 30.957C18.9589 30.9258 18.9685 30.8953 18.9864 30.8697C19.0043 30.8441 19.0297 30.8247 19.059 30.814L20.5408 30.2798C21.3532 29.9867 22.091 29.5181 22.7017 28.9074C23.3124 28.2967 23.781 27.5589 24.0741 26.7465L24.6083 25.2647C24.6568 25.1308 24.8471 25.1308 24.8944 25.2647Z" fill="#C89F82"/>
</svg>
