<svg width="40" height="40" viewBox="0 0 40 40" fill="none" xmlns="http://www.w3.org/2000/svg">
<path d="M16.5617 25.8334C16.4129 25.2566 16.1123 24.7303 15.6911 24.3091C15.2699 23.8879 14.7435 23.5872 14.1667 23.4384L3.94173 20.8018C3.76728 20.7522 3.61374 20.6472 3.50442 20.5025C3.39509 20.3578 3.33594 20.1814 3.33594 20.0001C3.33594 19.8188 3.39509 19.6424 3.50442 19.4977C3.61374 19.353 3.76728 19.2479 3.94173 19.1984L14.1667 16.5601C14.7433 16.4114 15.2696 16.111 15.6907 15.6902C16.1119 15.2693 16.4127 14.7432 16.5617 14.1668L19.1984 3.94176C19.2474 3.76662 19.3524 3.61233 19.4973 3.50241C19.6422 3.3925 19.819 3.33301 20.0009 3.33301C20.1828 3.33301 20.3596 3.3925 20.5045 3.50241C20.6494 3.61233 20.7544 3.76662 20.8034 3.94176L23.4384 14.1668C23.5872 14.7435 23.8878 15.2699 24.309 15.6911C24.7302 16.1123 25.2566 16.413 25.8334 16.5618L36.0584 19.1968C36.2342 19.2453 36.3893 19.3501 36.4998 19.4952C36.6103 19.6403 36.6702 19.8177 36.6702 20.0001C36.6702 20.1825 36.6103 20.3598 36.4998 20.505C36.3893 20.6501 36.2342 20.7549 36.0584 20.8034L25.8334 23.4384C25.2566 23.5872 24.7302 23.8879 24.309 24.3091C23.8878 24.7303 23.5872 25.2566 23.4384 25.8334L20.8017 36.0584C20.7527 36.2336 20.6478 36.3879 20.5029 36.4978C20.358 36.6077 20.1811 36.6672 19.9992 36.6672C19.8174 36.6672 19.6405 36.6077 19.4956 36.4978C19.3507 36.3879 19.2457 36.2336 19.1967 36.0584L16.5617 25.8334Z" stroke="#C98A5C" stroke-width="1.66583" stroke-linecap="round" stroke-linejoin="round"/>
<path d="M33.333 5V11.6661" stroke="#C98A5C" stroke-width="1.66583" stroke-linecap="round" stroke-linejoin="round"/>
<path d="M36.6661 8.33301H30" stroke="#C98A5C" stroke-width="1.66583" stroke-linecap="round" stroke-linejoin="round"/>
<path d="M6.66699 28.333V31.666" stroke="#C98A5C" stroke-width="1.66583" stroke-linecap="round" stroke-linejoin="round"/>
<path d="M8.33303 30H5" stroke="#C98A5C" stroke-width="1.66583" stroke-linecap="round" stroke-linejoin="round"/>
</svg>
