<svg width="64" height="64" viewBox="0 0 64 64" fill="none" xmlns="http://www.w3.org/2000/svg">
<rect width="64" height="64" rx="12" fill="url(#paint0_linear_606_2629)"/>
<path d="M41.3327 44V41.3333C41.3327 39.9188 40.7708 38.5623 39.7706 37.5621C38.7704 36.5619 37.4138 36 35.9993 36H27.9993C26.5849 36 25.2283 36.5619 24.2281 37.5621C23.2279 38.5623 22.666 39.9188 22.666 41.3333V44" stroke="white" stroke-width="2.66667" stroke-linecap="round" stroke-linejoin="round"/>
<path d="M31.9993 30.6667C34.9449 30.6667 37.3327 28.2789 37.3327 25.3333C37.3327 22.3878 34.9449 20 31.9993 20C29.0538 20 26.666 22.3878 26.666 25.3333C26.666 28.2789 29.0538 30.6667 31.9993 30.6667Z" stroke="white" stroke-width="2.66667" stroke-linecap="round" stroke-linejoin="round"/>
<defs>
<linearGradient id="paint0_linear_606_2629" x1="0" y1="32" x2="64" y2="32" gradientUnits="userSpaceOnUse">
<stop stop-color="#2B2B2B"/>
<stop offset="1" stop-color="#DDAE8C"/>
</linearGradient>
</defs>
</svg>
