<svg width="16" height="18" viewBox="0 0 16 18" fill="none" xmlns="http://www.w3.org/2000/svg">
<g clip-path="url(#clip0_23_2378)">
<path d="M12.2836 1.56798C12.491 1.08634 12.3363 0.523841 11.9109 0.214466C11.4855 -0.094909 10.9055 -0.066784 10.5082 0.277747L1.5082 8.15275C1.15663 8.46212 1.03007 8.95783 1.1953 9.39376C1.36054 9.8297 1.78241 10.125 2.24999 10.125H6.16991L3.4664 16.432C3.25898 16.9137 3.41366 17.4762 3.83905 17.7856C4.26445 18.0949 4.84452 18.0668 5.24179 17.7223L14.2418 9.84728C14.5934 9.5379 14.7199 9.0422 14.5547 8.60626C14.3894 8.17033 13.9711 7.87853 13.5 7.87853H9.58007L12.2836 1.56798Z" fill="white"/>
</g>
<defs>
<clipPath id="clip0_23_2378">
<path d="M0 0H15.75V18H0V0Z" fill="white"/>
</clipPath>
</defs>
</svg>
