<svg width="140" height="20" viewBox="0 0 140 20" fill="none" xmlns="http://www.w3.org/2000/svg">
<rect y="9.5" width="48" height="1" fill="#C98A5C"/>
<path d="M68.2809 12.9162C68.2065 12.6278 68.0561 12.3646 67.8455 12.154C67.6349 11.9434 67.3718 11.7931 67.0834 11.7187L61.9709 10.4004C61.8836 10.3756 61.8069 10.3231 61.7522 10.2508C61.6975 10.1784 61.668 10.0902 61.668 9.99956C61.668 9.90889 61.6975 9.82069 61.7522 9.74835C61.8069 9.67601 61.8836 9.62348 61.9709 9.59872L67.0834 8.27956C67.3717 8.20523 67.6348 8.05503 67.8454 7.84459C68.056 7.63414 68.2063 7.37113 68.2809 7.08289L69.5992 1.97039C69.6237 1.88282 69.6762 1.80567 69.7486 1.75072C69.8211 1.69576 69.9095 1.66602 70.0004 1.66602C70.0914 1.66602 70.1798 1.69576 70.2523 1.75072C70.3247 1.80567 70.3772 1.88282 70.4017 1.97039L71.7192 7.08289C71.7936 7.37128 71.9439 7.63447 72.1545 7.84507C72.3651 8.05567 72.6283 8.20599 72.9167 8.28039L78.0292 9.59789C78.1171 9.62214 78.1946 9.67456 78.2499 9.74712C78.3052 9.81968 78.3351 9.90836 78.3351 9.99956C78.3351 10.0908 78.3052 10.1794 78.2499 10.252C78.1946 10.3245 78.1171 10.377 78.0292 10.4012L72.9167 11.7187C72.6283 11.7931 72.3651 11.9434 72.1545 12.154C71.9439 12.3646 71.7936 12.6278 71.7192 12.9162L70.4009 18.0287C70.3764 18.1163 70.3239 18.1934 70.2514 18.2484C70.179 18.3033 70.0905 18.3331 69.9996 18.3331C69.9087 18.3331 69.8202 18.3033 69.7478 18.2484C69.6754 18.1934 69.6229 18.1163 69.5984 18.0287L68.2809 12.9162Z" stroke="#C98A5C" stroke-width="1.66667" stroke-linecap="round" stroke-linejoin="round"/>
<path d="M76.667 2.5V5.83333" stroke="#C98A5C" stroke-width="1.66667" stroke-linecap="round" stroke-linejoin="round"/>
<path d="M78.3333 4.16699H75" stroke="#C98A5C" stroke-width="1.66667" stroke-linecap="round" stroke-linejoin="round"/>
<path d="M63.333 14.167V15.8337" stroke="#C98A5C" stroke-width="1.66667" stroke-linecap="round" stroke-linejoin="round"/>
<path d="M64.1667 15H62.5" stroke="#C98A5C" stroke-width="1.66667" stroke-linecap="round" stroke-linejoin="round"/>
<rect x="92" y="9.5" width="48" height="1" fill="#C98A5C"/>
</svg>
