<svg width="48" height="48" viewBox="0 0 48 48" fill="none" xmlns="http://www.w3.org/2000/svg">
<rect width="48" height="48" rx="12" fill="#DDA23C" fill-opacity="0.1"/>
<path d="M22.9997 32C21.2438 32.0053 19.55 31.3505 18.2543 30.1654C16.9585 28.9803 16.1555 27.3515 16.0045 25.6021C15.8534 23.8527 16.3654 22.1104 17.4389 20.7207C18.5123 19.3311 20.0689 18.3957 21.7997 18.1C27.4997 17 28.9997 16.48 30.9997 14C31.9997 16 32.9997 18.18 32.9997 22C32.9997 27.5 28.2197 32 22.9997 32Z" stroke="#C98A5C" stroke-width="2" stroke-linecap="round" stroke-linejoin="round"/>
<path d="M14 33C14 30 15.85 27.64 19.08 27C21.5 26.52 24 25 25 24" stroke="#C98A5C" stroke-width="2" stroke-linecap="round" stroke-linejoin="round"/>
</svg>
