<svg width="24" height="24" viewBox="0 0 24 24" fill="none" xmlns="http://www.w3.org/2000/svg">
<path d="M11.625 0C18 0 23.25 5.25 23.25 11.625C23.25 18.0469 18 23.25 11.625 23.25C5.20312 23.25 0 18.0469 0 11.625C0 5.25 5.20312 0 11.625 0ZM19.7344 5.625C19.125 4.82812 18.4219 4.125 17.625 3.51562L14.6719 6.46875C15.5156 6.98438 16.2656 7.73438 16.7812 8.57812L19.7344 5.625ZM11.625 16.125C14.1094 16.125 16.125 14.1562 16.125 11.625C16.125 9.14062 14.1094 7.125 11.625 7.125C9.09375 7.125 7.125 9.14062 7.125 11.625C7.125 14.1562 9.09375 16.125 11.625 16.125ZM5.57812 3.51562C4.78125 4.125 4.07812 4.82812 3.46875 5.625L6.42188 8.57812C6.9375 7.73438 7.6875 6.98438 8.53125 6.46875L5.57812 3.51562ZM3.46875 17.6719C4.07812 18.4688 4.78125 19.1719 5.57812 19.7812L8.53125 16.8281C7.6875 16.3125 6.9375 15.5625 6.42188 14.7188L3.46875 17.6719ZM17.625 19.7812C18.4219 19.1719 19.125 18.4688 19.7344 17.6719L16.7812 14.7188C16.2656 15.5625 15.5156 16.3125 14.6719 16.8281L17.625 19.7812Z" fill="#C89F82"/>
</svg>
