<svg width="64" height="64" viewBox="0 0 64 64" fill="none" xmlns="http://www.w3.org/2000/svg">
<path d="M0 12C0 5.37258 5.37258 0 12 0H52C58.6274 0 64 5.37258 64 12V52C64 58.6274 58.6274 64 52 64H12C5.37258 64 0 58.6274 0 52V12Z" fill="url(#paint0_linear_606_2646)"/>
<path d="M43.1724 20.6127L37.3324 18.666C37.3324 20.0805 36.7705 21.4371 35.7703 22.4373C34.7701 23.4374 33.4136 23.9993 31.9991 23.9993C30.5846 23.9993 29.228 23.4374 28.2278 22.4373C27.2276 21.4371 26.6657 20.0805 26.6657 18.666L20.8257 20.6127C20.2223 20.8137 19.7105 21.2239 19.3829 21.7691C19.0553 22.3144 18.9333 22.9588 19.0391 23.586L19.8124 28.2127C19.8632 28.5259 20.024 28.8107 20.2659 29.016C20.5079 29.2213 20.8151 29.3336 21.1324 29.3327H23.9991V42.666C23.9991 44.1327 25.1991 45.3327 26.6657 45.3327H37.3324C38.0397 45.3327 38.7179 45.0517 39.218 44.5516C39.7181 44.0515 39.9991 43.3733 39.9991 42.666V29.3327H42.8657C43.183 29.3336 43.4903 29.2213 43.7322 29.016C43.9742 28.8107 44.135 28.5259 44.1857 28.2127L44.9591 23.586C45.0648 22.9588 44.9429 22.3144 44.6153 21.7691C44.2876 21.2239 43.7759 20.8137 43.1724 20.6127Z" stroke="white" stroke-width="2.66667" stroke-linecap="round" stroke-linejoin="round"/>
<defs>
<linearGradient id="paint0_linear_606_2646" x1="0" y1="32" x2="64" y2="32" gradientUnits="userSpaceOnUse">
<stop stop-color="#2B2B2B"/>
<stop offset="1" stop-color="#DDAE8C"/>
</linearGradient>
</defs>
</svg>
