<svg width="40" height="40" viewBox="0 0 40 40" fill="none" xmlns="http://www.w3.org/2000/svg">
<path d="M32 0C36.4183 0 40 3.58172 40 8V32C40 36.4183 36.4183 40 32 40H8C3.58172 40 0 36.4183 0 32V8C0 3.58172 3.58172 0 8 0H32Z" fill="url(#paint0_linear_581_2495)"/>
<path d="M32 0C36.4183 0 40 3.58172 40 8V32C40 36.4183 36.4183 40 32 40H8C3.58172 40 0 36.4183 0 32V8C0 3.58172 3.58172 0 8 0H32Z" stroke="#E5E7EB"/>
<path d="M17.9703 13.5775L18.5726 15.25C18.903 16.1668 19.4317 16.9995 20.1208 17.6887C20.81 18.3779 21.6427 18.9065 22.5596 19.237L24.2321 19.8392C24.2651 19.8513 24.2936 19.8733 24.3137 19.9021C24.3339 19.931 24.3447 19.9653 24.3447 20.0005C24.3447 20.0356 24.3339 20.07 24.3137 20.0988C24.2936 20.1276 24.2651 20.1496 24.2321 20.1617L22.5596 20.764C21.6427 21.0944 20.81 21.6231 20.1208 22.3122C19.4317 23.0014 18.903 23.8341 18.5726 24.751L17.9703 26.4235C17.9582 26.4565 17.9362 26.485 17.9074 26.5051C17.8786 26.5253 17.8442 26.5361 17.8091 26.5361C17.7739 26.5361 17.7396 26.5253 17.7107 26.5051C17.6819 26.485 17.6599 26.4565 17.6478 26.4235L17.0456 24.751C16.7151 23.8341 16.1864 23.0014 15.4973 22.3122C14.8081 21.6231 13.9754 21.0944 13.0586 20.764L11.3861 20.1617C11.353 20.1496 11.3245 20.1276 11.3044 20.0988C11.2842 20.07 11.2734 20.0356 11.2734 20.0005C11.2734 19.9653 11.2842 19.931 11.3044 19.9021C11.3245 19.8733 11.353 19.8513 11.3861 19.8392L13.0586 19.237C13.9754 18.9065 14.8081 18.3779 15.4973 17.6887C16.1864 16.9995 16.7151 16.1668 17.0456 15.25L17.6478 13.5775C17.6596 13.5441 17.6814 13.5152 17.7103 13.4948C17.7392 13.4744 17.7737 13.4634 17.8091 13.4634C17.8444 13.4634 17.8789 13.4744 17.9078 13.4948C17.9367 13.5152 17.9585 13.5441 17.9703 13.5775ZM25.4988 9.55821L25.8041 10.405C25.9715 10.8692 26.2393 11.2908 26.5883 11.6398C26.9372 11.9887 27.3588 12.2565 27.8231 12.424L28.6698 12.7292C28.6866 12.7353 28.7011 12.7464 28.7113 12.7611C28.7215 12.7757 28.727 12.7931 28.727 12.811C28.727 12.8288 28.7215 12.8462 28.7113 12.8609C28.7011 12.8755 28.6866 12.8866 28.6698 12.8927L27.8231 13.198C27.3588 13.3654 26.9372 13.6332 26.5883 13.9822C26.2393 14.3311 25.9715 14.7527 25.8041 15.217L25.4988 16.0637C25.4927 16.0805 25.4816 16.095 25.467 16.1052C25.4523 16.1155 25.4349 16.1209 25.4171 16.1209C25.3992 16.1209 25.3818 16.1155 25.3672 16.1052C25.3525 16.095 25.3414 16.0805 25.3353 16.0637L25.0301 15.217C24.8626 14.7527 24.5948 14.3311 24.2459 13.9822C23.8969 13.6332 23.4753 13.3654 23.0111 13.198L22.1643 12.8927C22.1475 12.8866 22.133 12.8755 22.1228 12.8609C22.1126 12.8462 22.1071 12.8288 22.1071 12.811C22.1071 12.7931 22.1126 12.7757 22.1228 12.7611C22.133 12.7464 22.1475 12.7353 22.1643 12.7292L23.0111 12.424C23.4753 12.2565 23.8969 11.9887 24.2459 11.6398C24.5948 11.2908 24.8626 10.8692 25.0301 10.405L25.3353 9.55821C25.3414 9.54144 25.3525 9.52695 25.3672 9.51671C25.3818 9.50647 25.3992 9.50098 25.4171 9.50098C25.4349 9.50098 25.4523 9.50647 25.467 9.51671C25.4816 9.52695 25.4927 9.54144 25.4988 9.55821ZM25.4988 23.938L25.8041 24.7847C25.9715 25.2489 26.2393 25.6705 26.5883 26.0195C26.9372 26.3685 27.3588 26.6362 27.8231 26.8037L28.6698 27.109C28.6866 27.1151 28.7011 27.1262 28.7113 27.1408C28.7215 27.1554 28.727 27.1729 28.727 27.1907C28.727 27.2086 28.7215 27.226 28.7113 27.2406C28.7011 27.2552 28.6866 27.2664 28.6698 27.2725L27.8231 27.5777C27.3588 27.7452 26.9372 28.0129 26.5883 28.3619C26.2393 28.7109 25.9715 29.1325 25.8041 29.5967L25.4988 30.4435C25.4927 30.4602 25.4816 30.4747 25.467 30.485C25.4523 30.4952 25.4349 30.5007 25.4171 30.5007C25.3992 30.5007 25.3818 30.4952 25.3672 30.485C25.3525 30.4747 25.3414 30.4602 25.3353 30.4435L25.0301 29.5967C24.8626 29.1325 24.5948 28.7109 24.2459 28.3619C23.8969 28.0129 23.4753 27.7452 23.0111 27.5777L22.1643 27.2725C22.1475 27.2664 22.133 27.2552 22.1228 27.2406C22.1126 27.226 22.1071 27.2086 22.1071 27.1907C22.1071 27.1729 22.1126 27.1554 22.1228 27.1408C22.133 27.1262 22.1475 27.1151 22.1643 27.109L23.0111 26.8037C23.4753 26.6362 23.8969 26.3685 24.2459 26.0195C24.5948 25.6705 24.8626 25.2489 25.0301 24.7847L25.3353 23.938C25.3631 23.8615 25.4718 23.8615 25.4988 23.938Z" fill="white"/>
<defs>
<linearGradient id="paint0_linear_581_2495" x1="0" y1="20" x2="40" y2="20" gradientUnits="userSpaceOnUse">
<stop stop-color="#2B2B2B"/>
<stop offset="1" stop-color="#DDAE8C"/>
</linearGradient>
</defs>
</svg>
