<svg width="40" height="40" viewBox="0 0 40 40" fill="none" xmlns="http://www.w3.org/2000/svg">
<path d="M32 0C36.4183 0 40 3.58172 40 8V32C40 36.4183 36.4183 40 32 40H8C3.58172 40 0 36.4183 0 32V8C0 3.58172 3.58172 0 8 0H32Z" fill="url(#paint0_linear_581_2509)"/>
<path d="M32 0C36.4183 0 40 3.58172 40 8V32C40 36.4183 36.4183 40 32 40H8C3.58172 40 0 36.4183 0 32V8C0 3.58172 3.58172 0 8 0H32Z" stroke="#E5E7EB"/>
<path d="M34.4858 23.1803L32.329 19.5195C31.8746 18.6715 32.233 18.4091 32.1018 17.6251C31.8488 15.2783 30.8015 13.0883 29.1336 11.418C27.4656 9.74771 25.2771 8.69742 22.9306 8.44113C22.8502 8.43483 22.7693 8.44549 22.6933 8.47242C22.6173 8.49935 22.5478 8.54194 22.4892 8.59745C22.4307 8.65295 22.3845 8.72013 22.3536 8.79463C22.3227 8.86913 22.3078 8.9493 22.3098 9.02993V13.9003C22.3083 14.1476 22.3749 14.3906 22.5024 14.6025C22.6298 14.8145 22.8131 14.9873 23.0323 15.102C23.2514 15.2166 23.4978 15.2688 23.7446 15.2527C23.9914 15.2366 24.229 15.1529 24.4314 15.0107C25.1514 14.4891 26.2938 15.0747 26.2938 16.0571C26.2964 16.2787 26.2381 16.4967 26.1252 16.6874C26.0124 16.878 25.8493 17.0341 25.6539 17.1384C25.4584 17.2427 25.238 17.2914 25.0168 17.279C24.7956 17.2667 24.582 17.1938 24.3994 17.0683C24.195 16.932 23.9573 16.8543 23.7118 16.8436C23.4664 16.833 23.2228 16.8898 23.0074 17.0079C22.792 17.1259 22.6131 17.3008 22.4901 17.5134C22.3671 17.7261 22.3048 17.9683 22.3098 18.2139V21.3851H20.9082C20.6661 21.3869 20.429 21.4548 20.2227 21.5815C20.0164 21.7082 19.8486 21.8889 19.7376 22.1041C19.6265 22.3192 19.5764 22.5607 19.5927 22.8022C19.6089 23.0438 19.6909 23.2764 19.8298 23.4747C20.3514 24.1627 19.7658 25.2731 18.8186 25.2731C17.8714 25.2731 17.2858 24.1595 17.8074 23.4747C17.9455 23.2736 18.0258 23.0385 18.0395 22.795C18.0533 22.5514 18.0001 22.3087 17.8856 22.0933C17.7712 21.8779 17.5998 21.698 17.3903 21.5731C17.1807 21.4483 16.9409 21.3832 16.697 21.3851H12.4538C12.363 21.3845 12.2733 21.4053 12.1921 21.4459C12.1109 21.4865 12.0405 21.5457 11.9865 21.6187C11.9325 21.6917 11.8966 21.7764 11.8816 21.866C11.8666 21.9555 11.873 22.0473 11.9002 22.1339C12.2959 23.1904 12.8458 24.1825 13.5322 25.0779C14.4922 26.4155 15.2282 27.4939 14.8698 29.1611L13.7946 33.7051C13.5962 34.4219 14.7066 34.6843 14.9018 33.9675L15.9802 29.4235C16.4698 27.2347 15.4586 25.7947 14.4794 24.4219C14.0373 23.8227 13.6435 23.1892 13.3018 22.5275H16.6938C16.825 22.5275 16.9562 22.6907 16.889 22.7899C15.7818 24.2267 16.9242 26.4155 18.809 26.4155C20.6938 26.4155 21.8106 24.2267 20.729 22.7899C20.6618 22.7227 20.729 22.5275 20.8922 22.5275H26.585C26.7291 22.5167 26.8638 22.4519 26.9621 22.3459C27.0604 22.24 27.115 22.1008 27.115 21.9563C27.115 21.8118 27.0604 21.6726 26.9621 21.5667C26.8638 21.4608 26.7291 21.3959 26.585 21.3851H23.4522V18.2139C23.4492 18.178 23.456 18.1419 23.4717 18.1094C23.4875 18.0769 23.5116 18.0493 23.5417 18.0293C23.5718 18.0094 23.6067 17.9979 23.6427 17.996C23.6787 17.9941 23.7146 18.002 23.7466 18.0187C25.1834 19.0971 27.4362 17.9835 27.4362 16.0571C27.4362 14.1307 25.1962 12.9851 23.7786 14.0635C23.6154 14.1627 23.4586 14.0955 23.4586 13.9003V9.68273C25.4138 10.0375 27.2014 11.0163 28.5536 12.4724C29.9059 13.9285 30.7499 15.7835 30.9594 17.7595C31.0906 18.7387 30.697 18.9019 31.3498 20.1115L33.5066 23.8043C33.7338 24.0987 33.4074 24.5563 33.049 24.5563H32.297C32.0743 24.5499 31.8526 24.5882 31.645 24.6689C31.4373 24.7496 31.248 24.8711 31.0881 25.0262C30.9282 25.1813 30.801 25.3669 30.7141 25.572C30.6271 25.7771 30.5821 25.9976 30.5818 26.2203V30.0603C30.5801 30.2 30.5509 30.3379 30.4957 30.4662C30.4405 30.5945 30.3605 30.7106 30.2603 30.8079C30.16 30.9051 30.0416 30.9816 29.9117 31.0329C29.7818 31.0842 29.643 31.1093 29.5034 31.1067H26.8154C26.3346 31.1011 25.8654 31.2551 25.4815 31.5446C25.0976 31.8341 24.8205 32.2429 24.6938 32.7067L24.3994 33.6667C24.1818 34.3995 25.2794 34.7195 25.4778 33.9995L25.7818 33.0171C25.8477 32.7907 25.9854 32.5918 26.1741 32.4504C26.3628 32.309 26.5924 32.2328 26.8282 32.2331H29.5034C30.0871 32.234 30.6477 32.0047 31.0634 31.5949C31.4792 31.1852 31.7166 30.628 31.7242 30.0443V26.2043C31.7236 26.1329 31.7377 26.0621 31.7658 25.9965C31.7938 25.9308 31.8351 25.8716 31.8871 25.8226C31.9391 25.7737 32.0006 25.7359 32.0678 25.7119C32.1351 25.6878 32.2065 25.6779 32.2778 25.6827H33.0618C34.3418 25.6827 35.2154 24.1787 34.4986 23.1643L34.4858 23.1803ZM13.401 18.1147L14.5818 17.1995C14.713 17.1355 14.9402 16.9723 14.9402 17.2347C14.9787 17.6365 15.1236 18.0207 15.3599 18.3478C15.5961 18.675 15.9153 18.9334 16.2845 19.0963C16.6537 19.2593 17.0597 19.3209 17.4606 19.2749C17.8616 19.229 18.243 19.077 18.5658 18.8347C19.0308 18.47 19.335 17.9382 19.4139 17.3525C19.4928 16.7668 19.3401 16.1735 18.9882 15.6987C18.7175 15.3555 18.3562 15.095 17.945 14.9467C17.6506 14.8475 17.977 14.6267 18.0762 14.4891L19.1834 13.6699C19.4399 13.4453 19.6027 13.1324 19.6394 12.7934C19.6762 12.4544 19.5842 12.1139 19.3818 11.8395L18.4026 10.5339C18.3034 10.4347 18.4026 10.3387 18.5658 10.3035C18.9691 10.2683 19.3552 10.1245 19.6833 9.8873C20.0113 9.65013 20.269 9.3285 20.4288 8.9566C20.5887 8.5847 20.6448 8.17643 20.5911 7.7752C20.5375 7.37397 20.3761 6.99478 20.1242 6.67793C19.0618 5.27953 16.9594 5.63153 16.2394 7.29873C16.0122 7.52593 16.0442 7.49393 15.849 7.23153L14.9338 6.08913C14.7271 5.83223 14.4312 5.66258 14.1051 5.61396C13.7789 5.56533 13.4465 5.6413 13.1738 5.82673L11.8362 6.84113C11.6592 6.98878 11.5241 7.18047 11.4448 7.3969C11.3654 7.61333 11.3444 7.84685 11.384 8.07396C11.4236 8.30106 11.5223 8.51373 11.6702 8.69054C11.8181 8.86735 12.01 9.00207 12.2266 9.08113C12.4147 9.15226 12.5808 9.27167 12.7081 9.42734C12.8355 9.58301 12.9196 9.76945 12.952 9.96794C12.9844 10.1664 12.964 10.37 12.8929 10.5581C12.8217 10.7462 12.7023 10.9122 12.5466 11.0395C12.3871 11.1498 12.2025 11.2182 12.0096 11.2384C11.8168 11.2585 11.622 11.2298 11.4431 11.1549C11.2643 11.08 11.1072 10.9613 10.9863 10.8097C10.8654 10.6581 10.7846 10.4785 10.7514 10.2875C10.7491 10.0464 10.6787 9.81076 10.5484 9.60786C10.418 9.40495 10.233 9.243 10.0146 9.14067C9.79621 9.03833 9.55335 8.99977 9.31401 9.02944C9.07467 9.0591 8.84858 9.15578 8.66179 9.30833L7.42339 10.2683C7.2829 10.3689 7.16422 10.4969 7.07451 10.6445C6.9848 10.7922 6.92591 10.9565 6.9014 11.1275C6.87688 11.2985 6.88724 11.4728 6.93185 11.6397C6.97647 11.8066 7.05441 11.9627 7.16099 12.0987L7.97699 13.2443C8.17219 13.4715 7.97699 13.6347 7.71779 13.7019C7.34707 13.7814 7.00259 13.9537 6.71661 14.2026C6.43063 14.4515 6.21251 14.7689 6.08268 15.1252C5.95286 15.4814 5.91557 15.8647 5.97432 16.2393C6.03307 16.6138 6.18594 16.9674 6.41859 17.2667C7.52579 18.7355 9.61859 18.3131 10.3674 16.5787C10.3674 16.4827 10.4954 16.4827 10.5626 16.5787L11.5738 17.8587C11.6746 17.9985 11.8026 18.1165 11.9501 18.2056C12.0976 18.2947 12.2616 18.3531 12.4322 18.3773C12.6028 18.4015 12.7766 18.391 12.9431 18.3465C13.1095 18.3019 13.2653 18.2242 13.401 18.1179V18.1147ZM11.2154 15.6315C10.5946 15.1419 9.45219 15.4043 9.29539 16.2203C8.90499 17.0683 7.89379 17.3307 7.33699 16.5787C7.21636 16.4221 7.13933 16.2363 7.11374 16.0403C7.08815 15.8443 7.11491 15.6449 7.19129 15.4626C7.26768 15.2802 7.39097 15.1214 7.54864 15.0021C7.70631 14.8828 7.89274 14.8074 8.08899 14.7835C8.30579 14.7783 8.51771 14.7181 8.70486 14.6085C8.89201 14.499 9.04826 14.3437 9.15894 14.1572C9.26962 13.9707 9.3311 13.7591 9.33762 13.5424C9.34413 13.3256 9.29547 13.1107 9.19619 12.9179L8.87619 12.4955L8.09219 11.4491C8.02499 11.3499 8.02499 11.2539 8.09219 11.2187L9.39779 10.2075C9.56099 10.0763 9.62499 10.2075 9.62499 10.3707C9.66318 10.7757 9.80968 11.1628 10.0491 11.4916C10.2885 11.8204 10.612 12.0787 10.9857 12.2394C11.3594 12.4 11.7694 12.4571 12.1727 12.4047C12.576 12.3522 12.9578 12.1922 13.278 11.9413C13.5981 11.6904 13.8448 11.358 13.9922 10.9789C14.1396 10.5999 14.1822 10.1881 14.1156 9.78685C14.0489 9.38561 13.8755 9.00971 13.6135 8.69861C13.3516 8.3875 13.0106 8.15266 12.6266 8.01873C12.4634 7.95153 12.4314 7.85233 12.5626 7.72433L13.8426 6.76433C13.8757 6.74062 13.9154 6.72787 13.9562 6.72787C13.9969 6.72787 14.0367 6.74062 14.0698 6.76433L15.3498 8.33553C15.9898 9.08753 17.113 8.53073 17.3082 7.74673C17.6666 6.89553 18.7098 6.63633 19.2666 7.35313C19.4012 7.51376 19.4872 7.70949 19.5145 7.91732C19.5417 8.12515 19.509 8.33643 19.4203 8.52632C19.3316 8.71622 19.1905 8.87684 19.0136 8.98929C18.8367 9.10175 18.6314 9.16136 18.4218 9.16113C18.1855 9.17443 17.9575 9.25298 17.7632 9.38805C17.5689 9.52312 17.4158 9.70941 17.321 9.92625C17.2262 10.1431 17.1933 10.382 17.2261 10.6163C17.2588 10.8507 17.3559 11.0714 17.5066 11.2539L18.4666 12.5339C18.4882 12.561 18.5026 12.5931 18.5082 12.6273C18.5138 12.6615 18.5105 12.6966 18.4986 12.7291L16.9338 14.0091C16.808 14.1738 16.7232 14.3661 16.6864 14.57C16.6496 14.7739 16.6619 14.9837 16.7223 15.1819C16.7826 15.3802 16.8893 15.5612 17.0335 15.71C17.1776 15.8589 17.3552 15.9713 17.5514 16.0379C17.74 16.1027 17.9077 16.217 18.0371 16.3688C18.1665 16.5205 18.2527 16.7043 18.2868 16.9008C18.3209 17.0972 18.3016 17.2993 18.2309 17.4858C18.1602 17.6723 18.0408 17.8363 17.885 17.9609C17.7292 18.0854 17.5429 18.1658 17.3454 18.1937C17.148 18.2217 16.9466 18.196 16.7625 18.1195C16.5783 18.0431 16.418 17.9185 16.2984 17.7589C16.1788 17.5993 16.1043 17.4106 16.0826 17.2123C16.0774 16.9961 16.0175 16.7848 15.9085 16.598C15.7995 16.4113 15.6449 16.2552 15.4593 16.1443C15.2736 16.0334 15.0629 15.9714 14.8468 15.9639C14.6307 15.9565 14.4162 16.004 14.2234 16.1019L12.7226 17.2123C12.6234 17.2795 12.5914 17.2475 12.5594 17.1803L11.2154 15.6315Z" fill="white"/>
<defs>
<linearGradient id="paint0_linear_581_2509" x1="0" y1="20" x2="40" y2="20" gradientUnits="userSpaceOnUse">
<stop stop-color="#2B2B2B"/>
<stop offset="1" stop-color="#DDAE8C"/>
</linearGradient>
</defs>
</svg>
