<svg width="40" height="40" viewBox="0 0 40 40" fill="none" xmlns="http://www.w3.org/2000/svg">
<path d="M32 0C36.4183 0 40 3.58172 40 8V32C40 36.4183 36.4183 40 32 40H8C3.58172 40 0 36.4183 0 32V8C0 3.58172 3.58172 0 8 0H32Z" fill="url(#paint0_linear_581_2503)"/>
<path d="M32 0C36.4183 0 40 3.58172 40 8V32C40 36.4183 36.4183 40 32 40H8C3.58172 40 0 36.4183 0 32V8C0 3.58172 3.58172 0 8 0H32Z" stroke="#E5E7EB"/>
<path d="M17.9375 18.5469H8.5625C8.23438 18.5469 8 18.2656 8 17.9844V8.5625C8 8.28125 8.23438 8 8.5625 8H10.8125C11.0938 8 11.375 8.28125 11.375 8.5625V12.2656C13.4844 9.875 16.625 8.375 20.0938 8.42188C26.5156 8.46875 31.625 13.625 31.625 20.0469C31.625 26.4688 26.4219 31.625 20 31.625C17 31.625 14.2344 30.5 12.1719 28.625C11.9375 28.4375 11.9375 28.0625 12.1719 27.8281L13.7656 26.2344C13.9531 26 14.2812 26 14.5156 26.1875C15.9688 27.5 17.8906 28.25 20 28.25C24.5469 28.25 28.25 24.5938 28.25 20C28.25 15.4531 24.5469 11.75 20 11.75C17.2344 11.75 14.8438 13.1094 13.3438 15.1719H17.9375C18.2188 15.1719 18.5 15.4062 18.5 15.7344V17.9844C18.5 18.2656 18.2188 18.5469 17.9375 18.5469Z" fill="white"/>
<defs>
<linearGradient id="paint0_linear_581_2503" x1="0" y1="20" x2="40" y2="20" gradientUnits="userSpaceOnUse">
<stop stop-color="#2B2B2B"/>
<stop offset="1" stop-color="#DDAE8C"/>
</linearGradient>
</defs>
</svg>
