<svg width="40" height="40" viewBox="0 0 40 40" fill="none" xmlns="http://www.w3.org/2000/svg">
<path d="M32 0C36.4183 0 40 3.58172 40 8V32C40 36.4183 36.4183 40 32 40H8C3.58172 40 0 36.4183 0 32V8C0 3.58172 3.58172 0 8 0H32Z" fill="url(#paint0_linear_581_2484)"/>
<path d="M32 0C36.4183 0 40 3.58172 40 8V32C40 36.4183 36.4183 40 32 40H8C3.58172 40 0 36.4183 0 32V8C0 3.58172 3.58172 0 8 0H32Z" stroke="#E5E7EB"/>
<g clip-path="url(#clip0_581_2484)">
<path d="M29.4277 26.6255C29.3124 26.6255 29.2007 26.5857 29.1114 26.5128C29.0221 26.4399 28.9607 26.3384 28.9377 26.2255C28.8127 25.6085 28.2692 23.9345 27.2697 23.6015C27.1696 23.5686 27.0825 23.505 27.0208 23.4197C26.959 23.3344 26.9258 23.2318 26.9258 23.1265C26.9258 23.0212 26.959 22.9185 27.0208 22.8333C27.0825 22.748 27.1696 22.6843 27.2697 22.6515C28.2697 22.3185 28.8127 20.6445 28.9377 20.0275C28.9606 19.9144 29.0219 19.8128 29.1112 19.7398C29.2005 19.6668 29.3123 19.627 29.4277 19.627C29.543 19.627 29.6548 19.6668 29.7441 19.7398C29.8334 19.8128 29.8947 19.9144 29.9177 20.0275C30.0427 20.6445 30.5862 22.3185 31.5857 22.6515C31.6857 22.6843 31.7728 22.748 31.8345 22.8333C31.8963 22.9185 31.9295 23.0212 31.9295 23.1265C31.9295 23.2318 31.8963 23.3344 31.8345 23.4197C31.7728 23.505 31.6857 23.5686 31.5857 23.6015C30.5857 23.9345 30.0427 25.6085 29.9177 26.2255C29.8946 26.3384 29.8332 26.4399 29.7439 26.5128C29.6547 26.5857 29.5429 26.6255 29.4277 26.6255ZM28.4002 23.1255C28.839 23.5312 29.1889 24.0236 29.4277 24.5715C29.6665 24.0236 30.0163 23.5312 30.4552 23.1255C30.0163 22.7197 29.6665 22.2273 29.4277 21.6795C29.1889 22.2273 28.839 22.7197 28.4002 23.1255ZM26.4277 11.1255C26.3124 11.1255 26.2007 11.0857 26.1114 11.0128C26.0221 10.9399 25.9607 10.8384 25.9377 10.7255C25.8127 10.1085 25.2692 8.43445 24.2697 8.10145C24.1696 8.06858 24.0825 8.00495 24.0208 7.91966C23.959 7.83437 23.9258 7.73175 23.9258 7.62645C23.9258 7.52116 23.959 7.41854 24.0208 7.33325C24.0825 7.24796 24.1696 7.18433 24.2697 7.15145C25.2697 6.81845 25.8127 5.14445 25.9377 4.52745C25.9606 4.41443 26.0219 4.31281 26.1112 4.23982C26.2005 4.16683 26.3123 4.12695 26.4277 4.12695C26.543 4.12695 26.6548 4.16683 26.7441 4.23982C26.8334 4.31281 26.8947 4.41443 26.9177 4.52745C27.0427 5.14445 27.5862 6.81845 28.5857 7.15145C28.6857 7.18433 28.7728 7.24796 28.8345 7.33325C28.8963 7.41854 28.9295 7.52116 28.9295 7.62645C28.9295 7.73175 28.8963 7.83437 28.8345 7.91966C28.7728 8.00495 28.6857 8.06858 28.5857 8.10145C27.5857 8.43445 27.0427 10.1085 26.9177 10.7255C26.8946 10.8384 26.8332 10.9399 26.7439 11.0128C26.6547 11.0857 26.5429 11.1255 26.4277 11.1255ZM25.4002 7.62545C25.839 8.0312 26.1889 8.52358 26.4277 9.07146C26.6665 8.52358 27.0163 8.0312 27.4552 7.62545C27.0163 7.21971 26.6665 6.72733 26.4277 6.17945C26.1889 6.72733 25.839 7.21971 25.4002 7.62545ZM10.4277 17.1255C10.3124 17.1255 10.2007 17.0857 10.1114 17.0128C10.0221 16.9399 9.96071 16.8384 9.93766 16.7255C9.81266 16.1085 9.26916 14.4345 8.26966 14.1015C8.16962 14.0686 8.08252 14.005 8.02077 13.9197C7.95903 13.8344 7.92578 13.7318 7.92578 13.6265C7.92578 13.5212 7.95903 13.4185 8.02077 13.3333C8.08252 13.248 8.16962 13.1843 8.26966 13.1515C9.26966 12.8185 9.81266 11.1445 9.93766 10.5275C9.96061 10.4144 10.0219 10.3128 10.1112 10.2398C10.2005 10.1668 10.3123 10.127 10.4277 10.127C10.543 10.127 10.6548 10.1668 10.7441 10.2398C10.8334 10.3128 10.8947 10.4144 10.9177 10.5275C11.0427 11.1445 11.5862 12.8185 12.5857 13.1515C12.6857 13.1843 12.7728 13.248 12.8345 13.3333C12.8963 13.4185 12.9295 13.5212 12.9295 13.6265C12.9295 13.7318 12.8963 13.8344 12.8345 13.9197C12.7728 14.005 12.6857 14.0686 12.5857 14.1015C11.5857 14.4345 11.0427 16.1085 10.9177 16.7255C10.8946 16.8384 10.8332 16.9399 10.7439 17.0128C10.6547 17.0857 10.5429 17.1255 10.4277 17.1255ZM9.40016 13.6255C9.83898 14.0312 10.1889 14.5236 10.4277 15.0715C10.6665 14.5236 11.0163 14.0312 11.4552 13.6255C11.0163 13.2197 10.6665 12.7273 10.4277 12.1795C10.1889 12.7273 9.83898 13.2197 9.40016 13.6255ZM20.9277 22.1255C20.8288 22.1254 20.7321 22.0961 20.6499 22.0412C20.5677 21.9862 20.5037 21.9081 20.4658 21.8168C20.428 21.7254 20.4181 21.6249 20.4374 21.5279C20.4566 21.431 20.5043 21.3419 20.5742 21.272L26.5742 15.272C26.6685 15.1809 26.7948 15.1305 26.9259 15.1316C27.057 15.1328 27.1824 15.1853 27.2751 15.278C27.3678 15.3708 27.4204 15.4962 27.4215 15.6273C27.4226 15.7584 27.3722 15.8847 27.2812 15.979L21.2812 21.979C21.1874 22.0727 21.0603 22.1254 20.9277 22.1255Z" fill="white"/>
<path d="M20.4276 24.6249C20.295 24.6249 20.1679 24.5722 20.0741 24.4784L18.0741 22.4784C17.9804 22.3846 17.9277 22.2575 17.9277 22.1249C17.9277 21.9923 17.9804 21.8652 18.0741 21.7714L29.0741 10.7714C29.1679 10.6777 29.295 10.625 29.4276 10.625C29.5602 10.625 29.6874 10.6777 29.7811 10.7714L31.7811 12.7714C31.8749 12.8652 31.9275 12.9923 31.9275 13.1249C31.9275 13.2575 31.8749 13.3846 31.7811 13.4784L20.7811 24.4784C20.6874 24.5722 20.5602 24.6249 20.4276 24.6249ZM19.1346 22.1249L20.4276 23.4179L30.7206 13.1249L29.4276 11.8319L19.1346 22.1249Z" fill="white"/>
<path d="M16.9277 26.1251C16.845 26.1251 16.7635 26.1046 16.6907 26.0654C16.6179 26.0261 16.5559 25.9694 16.5103 25.9003C16.4648 25.8313 16.4371 25.752 16.4298 25.6696C16.4224 25.5871 16.4356 25.5042 16.4682 25.4281L17.9682 21.9281C18.0217 21.8081 18.1203 21.714 18.2426 21.6661C18.3649 21.6182 18.5012 21.6204 18.6219 21.6721C18.7427 21.7239 18.8382 21.8211 18.8879 21.9428C18.9375 22.0644 18.9373 22.2007 18.8872 22.3221L17.8777 24.6751L20.2277 23.6676C20.3492 23.6176 20.4855 23.6174 20.6071 23.667C20.7288 23.7167 20.826 23.8122 20.8777 23.9329C20.9295 24.0537 20.9317 24.1899 20.8838 24.3123C20.8359 24.4346 20.7417 24.5332 20.6217 24.5866L17.1217 26.0866C17.0603 26.1124 16.9943 26.1255 16.9277 26.1251ZM29.4277 15.6251C29.2951 15.6251 29.168 15.5724 29.0742 15.4786L27.0742 13.4786C26.9832 13.3843 26.9328 13.258 26.9339 13.1269C26.935 12.9958 26.9876 12.8704 27.0803 12.7777C27.173 12.685 27.2984 12.6324 27.4295 12.6313C27.5606 12.6302 27.6869 12.6806 27.7812 12.7716L29.7812 14.7716C29.8511 14.8416 29.8987 14.9306 29.918 15.0276C29.9373 15.1246 29.9274 15.2251 29.8896 15.3165C29.8517 15.4078 29.7877 15.4859 29.7055 15.5408C29.6233 15.5958 29.5266 15.6251 29.4277 15.6251ZM20.9277 15.1251H14.9277C14.8454 15.1252 14.7644 15.1049 14.6918 15.066C14.6193 15.0272 14.5574 14.9711 14.5117 14.9026C12.9217 12.5176 12.9277 4.94464 12.9277 4.62514C12.928 4.52042 12.9612 4.41842 13.0226 4.33356C13.0839 4.24869 13.1704 4.18524 13.2697 4.15214L14.7697 3.65214C14.8454 3.62692 14.9261 3.62019 15.0049 3.63249C15.0837 3.64479 15.1584 3.67578 15.2228 3.72286C15.2873 3.76994 15.3395 3.83175 15.3751 3.90312C15.4107 3.9745 15.4288 4.05337 15.4277 4.13314C15.441 4.81632 15.6943 5.47303 16.1432 5.98814C16.3823 6.20924 16.6637 6.37965 16.9703 6.48913C17.277 6.5986 17.6027 6.64487 17.9277 6.62514C18.2541 6.64513 18.5811 6.59847 18.8888 6.48801C19.1966 6.37755 19.4786 6.20561 19.7177 5.98264C20.1624 5.46752 20.4134 4.81347 20.4277 4.13314C20.4264 4.05324 20.4443 3.9742 20.4798 3.90262C20.5154 3.83105 20.5676 3.76904 20.632 3.72179C20.6964 3.67453 20.7713 3.64341 20.8502 3.63104C20.9292 3.61866 21.0099 3.62538 21.0857 3.65064L22.5857 4.15064C22.6853 4.18382 22.772 4.2475 22.8334 4.33267C22.8947 4.41783 22.9278 4.52016 22.9277 4.62514C22.9277 4.94614 22.9337 12.5191 21.3437 14.9041C21.2979 14.9723 21.2359 15.0282 21.1634 15.0667C21.0908 15.1052 21.0099 15.1253 20.9277 15.1251ZM15.2112 14.1251H20.6442C21.6522 12.2401 21.9067 7.23364 21.9277 4.98514L21.3612 4.79614C21.2449 5.50364 20.9212 6.1607 20.4312 6.68414C20.1004 7.00376 19.7076 7.25216 19.277 7.41401C18.8464 7.57585 18.3872 7.64771 17.9277 7.62514C17.4689 7.64723 17.0103 7.57513 16.5804 7.4133C16.1504 7.25146 15.7582 7.00332 15.4277 6.68414C14.9377 6.1607 14.6141 5.50364 14.4977 4.79614L13.9277 4.98514C13.9487 7.23364 14.2032 12.2401 15.2112 14.1251Z" fill="white"/>
<path d="M17.9277 35.625C11.0387 35.625 8.80773 34.621 8.71623 34.578C8.63049 34.538 8.55787 34.4744 8.5068 34.3948C8.45573 34.3151 8.42832 34.2226 8.42773 34.128C8.42773 34.007 8.42073 31.09 9.94273 25.0025C10.8916 21.2302 12.4344 17.6327 14.5132 14.345C14.5591 14.2772 14.6208 14.2217 14.6931 14.1834C14.7653 14.145 14.8459 14.125 14.9277 14.125H20.9277C21.0096 14.125 21.0901 14.145 21.1624 14.1834C21.2347 14.2217 21.2964 14.2772 21.3422 14.345C21.3592 14.3705 21.7697 14.9805 22.3657 16.059C22.3986 16.1166 22.4197 16.1801 22.4278 16.2458C22.4358 16.3116 22.4308 16.3783 22.4128 16.4421C22.3949 16.5059 22.3645 16.5655 22.3233 16.6175C22.2821 16.6694 22.231 16.7126 22.173 16.7447C22.115 16.7767 22.0512 16.7968 21.9853 16.804C21.9194 16.8111 21.8528 16.805 21.7892 16.7862C21.7257 16.7673 21.6665 16.736 21.6152 16.6941C21.5639 16.6522 21.5214 16.6005 21.4902 16.542C21.2262 16.0616 20.9481 15.589 20.6562 15.125H15.1997C13.273 18.2657 11.8279 21.6774 10.9127 25.2465C10.155 28.0379 9.66136 30.8943 9.43823 33.778C10.2277 34.025 12.6777 34.625 17.9277 34.625C23.2227 34.625 25.6367 34.0305 26.4172 33.7805C26.1945 30.8959 25.7008 28.0386 24.9427 25.2465C24.692 24.2481 24.3962 23.2616 24.0562 22.29C24.0125 22.1648 24.0203 22.0272 24.0779 21.9077C24.1355 21.7882 24.2382 21.6965 24.3635 21.6528C24.4887 21.609 24.6262 21.6168 24.7457 21.6744C24.8652 21.732 24.957 21.8348 25.0007 21.96C25.3503 22.9603 25.6546 23.9758 25.9127 25.0035C27.4347 31.091 27.4277 34.008 27.4277 34.129C27.4272 34.2236 27.3997 34.3161 27.3487 34.3958C27.2976 34.4754 27.225 34.539 27.1392 34.579C27.0477 34.621 24.8167 35.625 17.9277 35.625Z" fill="white"/>
</g>
<defs>
<linearGradient id="paint0_linear_581_2484" x1="0" y1="20" x2="40" y2="20" gradientUnits="userSpaceOnUse">
<stop stop-color="#2B2B2B"/>
<stop offset="1" stop-color="#DDAE8C"/>
</linearGradient>
<clipPath id="clip0_581_2484">
<rect width="32" height="32" fill="white" transform="translate(3.92773 3.625)"/>
</clipPath>
</defs>
</svg>
