<svg width="40" height="40" viewBox="0 0 40 40" fill="none" xmlns="http://www.w3.org/2000/svg">
<path d="M32 0C36.4183 0 40 3.58172 40 8V32C40 36.4183 36.4183 40 32 40H8C3.58172 40 0 36.4183 0 32V8C0 3.58172 3.58172 0 8 0H32Z" fill="url(#paint0_linear_581_2475)"/>
<path d="M32 0C36.4183 0 40 3.58172 40 8V32C40 36.4183 36.4183 40 32 40H8C3.58172 40 0 36.4183 0 32V8C0 3.58172 3.58172 0 8 0H32Z" stroke="#E5E7EB"/>
<g clip-path="url(#clip0_581_2475)">
<path fill-rule="evenodd" clip-rule="evenodd" d="M19.7277 9.125C19.9927 9.125 20.2377 9.265 20.3727 9.493L24.3727 16.243C24.4265 16.3278 24.4628 16.4226 24.4794 16.5217C24.4959 16.6207 24.4924 16.7222 24.469 16.8199C24.4456 16.9176 24.4028 17.0096 24.3432 17.0904C24.2835 17.1713 24.2083 17.2393 24.1218 17.2905C24.0354 17.3417 23.9395 17.375 23.84 17.3885C23.7404 17.4019 23.6391 17.3952 23.5422 17.3688C23.4453 17.3423 23.3547 17.2967 23.2757 17.2345C23.1968 17.1724 23.1311 17.095 23.0827 17.007L19.7277 11.347L16.3727 17.007C16.3242 17.095 16.2585 17.1724 16.1796 17.2345C16.1007 17.2967 16.01 17.3423 15.9131 17.3688C15.8162 17.3952 15.7149 17.4019 15.6154 17.3885C15.5158 17.375 15.42 17.3417 15.3335 17.2905C15.2471 17.2393 15.1718 17.1713 15.1122 17.0904C15.0525 17.0096 15.0097 16.9176 14.9863 16.8199C14.9629 16.7222 14.9594 16.6207 14.9759 16.5217C14.9925 16.4226 15.0288 16.3278 15.0827 16.243L19.0827 9.493C19.149 9.38095 19.2433 9.28809 19.3564 9.22357C19.4695 9.15904 19.5975 9.12507 19.7277 9.125ZM26.3457 21.23C26.5168 21.1288 26.721 21.0996 26.9136 21.1489C27.1062 21.1983 27.2713 21.322 27.3727 21.493L31.3727 28.243C31.44 28.3569 31.4761 28.4865 31.4772 28.6188C31.4783 28.7511 31.4444 28.8813 31.3789 28.9963C31.3134 29.1112 31.2186 29.2068 31.1043 29.2733C30.9899 29.3399 30.86 29.3749 30.7277 29.375H22.7277C22.5287 29.375 22.338 29.296 22.1973 29.1553C22.0567 29.0147 21.9777 28.8239 21.9777 28.625C21.9777 28.4261 22.0567 28.2353 22.1973 28.0947C22.338 27.954 22.5287 27.875 22.7277 27.875H29.4117L26.0817 22.257C25.9805 22.0858 25.9515 21.8814 26.001 21.6888C26.0505 21.4963 26.1745 21.3312 26.3457 21.23ZM13.1027 20.975C13.1881 21.0242 13.2629 21.0898 13.323 21.1679C13.383 21.2461 13.4271 21.3353 13.4526 21.4305C13.4782 21.5257 13.4847 21.625 13.4718 21.7227C13.459 21.8204 13.427 21.9147 13.3777 22L10.0357 27.788L16.5657 27.714C16.7646 27.7119 16.9562 27.7889 17.0983 27.928C17.2405 28.0672 17.3215 28.2571 17.3237 28.456C17.3258 28.6549 17.2488 28.8465 17.1096 28.9887C16.9705 29.1308 16.7806 29.2119 16.5817 29.214L8.73666 29.304C8.60406 29.3058 8.47336 29.2724 8.35787 29.2072C8.24239 29.142 8.14626 29.0474 8.07927 28.9329C8.01229 28.8184 7.97685 28.6883 7.97656 28.5557C7.97628 28.4231 8.01117 28.2927 8.07766 28.178L12.0777 21.25C12.1269 21.1646 12.1924 21.0897 12.2706 21.0297C12.3487 20.9696 12.438 20.9256 12.5332 20.9C12.6284 20.8745 12.7277 20.868 12.8254 20.8808C12.9231 20.8937 13.0173 20.9257 13.1027 20.975ZM15.4777 22.125C15.4777 21.9261 15.5567 21.7353 15.6973 21.5947C15.838 21.454 16.0287 21.375 16.2277 21.375H23.1377C23.3366 21.375 23.5273 21.454 23.668 21.5947C23.8086 21.7353 23.8877 21.9261 23.8877 22.125C23.8877 22.3239 23.8086 22.5147 23.668 22.6553C23.5273 22.796 23.3366 22.875 23.1377 22.875H16.2277C16.0287 22.875 15.838 22.796 15.6973 22.6553C15.5567 22.5147 15.4777 22.3239 15.4777 22.125Z" fill="white"/>
</g>
<defs>
<linearGradient id="paint0_linear_581_2475" x1="0" y1="20" x2="40" y2="20" gradientUnits="userSpaceOnUse">
<stop stop-color="#2B2B2B"/>
<stop offset="1" stop-color="#DDAE8C"/>
</linearGradient>
<clipPath id="clip0_581_2475">
<rect width="24" height="24" fill="white" transform="translate(7.72852 7.625)"/>
</clipPath>
</defs>
</svg>
