<svg width="96" height="96" viewBox="0 0 96 96" fill="none" xmlns="http://www.w3.org/2000/svg">
<path d="M0 12C0 5.37258 5.37258 0 12 0H84C90.6274 0 96 5.37258 96 12V84C96 90.6274 90.6274 96 84 96H12C5.37258 96 0 90.6274 0 84V12Z" fill="#DDA23C" fill-opacity="0.1"/>
<path d="M62 52C64.98 49.08 68 45.58 68 41C68 38.0826 66.8411 35.2847 64.7782 33.2218C62.7153 31.1589 59.9174 30 57 30C53.48 30 51 31 48 34C45 31 42.52 30 39 30C36.0826 30 33.2847 31.1589 31.2218 33.2218C29.1589 35.2847 28 38.0826 28 41C28 45.6 31 49.1 34 52L48 66L62 52Z" stroke="#C98A5C" stroke-width="4" stroke-linecap="round" stroke-linejoin="round"/>
</svg>
