<svg width="42" height="42" viewBox="0 0 42 42" fill="none" xmlns="http://www.w3.org/2000/svg">
<path d="M17.4485 9.75983L18.5025 12.6867C19.0808 14.2912 20.0059 15.7485 21.2119 16.9545C22.4179 18.1605 23.8752 19.0856 25.4797 19.6639L28.4066 20.7179C28.4644 20.7391 28.5143 20.7775 28.5495 20.828C28.5848 20.8784 28.6037 20.9385 28.6037 21.0001C28.6037 21.0616 28.5848 21.1217 28.5495 21.1722C28.5143 21.2226 28.4644 21.2611 28.4066 21.2823L25.4797 22.3362C23.8752 22.9145 22.4179 23.8396 21.2119 25.0457C20.0059 26.2517 19.0808 27.7089 18.5025 29.3134L17.4485 32.2403C17.4273 32.2981 17.3889 32.348 17.3384 32.3833C17.288 32.4185 17.2279 32.4374 17.1663 32.4374C17.1048 32.4374 17.0447 32.4185 16.9942 32.3833C16.9438 32.348 16.9053 32.2981 16.8841 32.2403L15.8302 29.3134C15.2519 27.7089 14.3268 26.2517 13.1207 25.0457C11.9147 23.8396 10.4575 22.9145 8.85296 22.3362L5.92609 21.2823C5.86829 21.2611 5.8184 21.2226 5.78315 21.1722C5.74791 21.1217 5.729 21.0616 5.729 21.0001C5.729 20.9385 5.74791 20.8784 5.78315 20.828C5.8184 20.7775 5.86829 20.7391 5.92609 20.7179L8.85296 19.6639C10.4575 19.0856 11.9147 18.1605 13.1207 16.9545C14.3268 15.7485 15.2519 14.2912 15.8302 12.6867L16.8841 9.75983C16.9048 9.70145 16.943 9.65089 16.9935 9.61514C17.044 9.57938 17.1044 9.56018 17.1663 9.56018C17.2282 9.56018 17.2886 9.57938 17.3392 9.61514C17.3897 9.65089 17.4279 9.70145 17.4485 9.75983ZM30.6234 2.72614L31.1576 4.20795C31.4507 5.02035 31.9192 5.75816 32.5299 6.36885C33.1406 6.97954 33.8784 7.44811 34.6908 7.7412L36.1726 8.27539C36.202 8.28608 36.2274 8.30554 36.2453 8.33113C36.2632 8.35672 36.2728 8.38721 36.2728 8.41845C36.2728 8.44969 36.2632 8.48018 36.2453 8.50577C36.2274 8.53136 36.202 8.55082 36.1726 8.56151L34.6908 9.0957C33.8784 9.38879 33.1406 9.85736 32.5299 10.4681C31.9192 11.0787 31.4507 11.8166 31.1576 12.629L30.6234 14.1108C30.6127 14.1401 30.5933 14.1655 30.5677 14.1834C30.5421 14.2013 30.5116 14.2109 30.4803 14.2109C30.4491 14.2109 30.4186 14.2013 30.393 14.1834C30.3674 14.1655 30.348 14.1401 30.3373 14.1108L29.8031 12.629C29.51 11.8166 29.0414 11.0787 28.4307 10.4681C27.82 9.85736 27.0822 9.38879 26.2698 9.0957L24.788 8.56151C24.7587 8.55082 24.7333 8.53136 24.7154 8.50577C24.6975 8.48018 24.6879 8.44969 24.6879 8.41845C24.6879 8.38721 24.6975 8.35672 24.7154 8.33113C24.7333 8.30554 24.7587 8.28608 24.788 8.27539L26.2698 7.7412C27.0822 7.44811 27.82 6.97954 28.4307 6.36885C29.0414 5.75816 29.51 5.02035 29.8031 4.20795L30.3373 2.72614C30.348 2.69678 30.3674 2.67142 30.393 2.65351C30.4186 2.63559 30.4491 2.62598 30.4803 2.62598C30.5116 2.62598 30.5421 2.63559 30.5677 2.65351C30.5933 2.67142 30.6127 2.69678 30.6234 2.72614ZM30.6234 27.8907L31.1576 29.3725C31.4507 30.1849 31.9192 30.9227 32.5299 31.5334C33.1406 32.1441 33.8784 32.6127 34.6908 32.9058L36.1726 33.44C36.202 33.4506 36.2274 33.4701 36.2453 33.4957C36.2632 33.5213 36.2728 33.5518 36.2728 33.583C36.2728 33.6143 36.2632 33.6447 36.2453 33.6703C36.2274 33.6959 36.202 33.7154 36.1726 33.7261L34.6908 34.2603C33.8784 34.5534 33.1406 35.0219 32.5299 35.6326C31.9192 36.2433 31.4507 36.9811 31.1576 37.7935L30.6234 39.2753C30.6127 39.3047 30.5933 39.33 30.5677 39.348C30.5421 39.3659 30.5116 39.3755 30.4803 39.3755C30.4491 39.3755 30.4186 39.3659 30.393 39.348C30.3674 39.33 30.348 39.3047 30.3373 39.2753L29.8031 37.7935C29.51 36.9811 29.0414 36.2433 28.4307 35.6326C27.82 35.0219 27.0822 34.5534 26.2698 34.2603L24.788 33.7261C24.7587 33.7154 24.7333 33.6959 24.7154 33.6703C24.6975 33.6447 24.6879 33.6143 24.6879 33.583C24.6879 33.5518 24.6975 33.5213 24.7154 33.4957C24.7333 33.4701 24.7587 33.4506 24.788 33.44L26.2698 32.9058C27.0822 32.6127 27.82 32.1441 28.4307 31.5334C29.0414 30.9227 29.51 30.1849 29.8031 29.3725L30.3373 27.8907C30.3858 27.7568 30.5762 27.7568 30.6234 27.8907Z" fill="white"/>
</svg>
