<svg width="18" height="15" viewBox="0 0 18 15" fill="none" xmlns="http://www.w3.org/2000/svg">
<path d="M12.8333 0C11.1974 0 9.76518 0.693173 8.8724 1.86486C7.97961 0.693173 6.54735 0 4.91151 0C3.60934 0.00144625 2.36094 0.511809 1.44017 1.41912C0.5194 2.32643 0.0014677 3.55659 0 4.83973C0 10.3039 8.22202 14.7268 8.57216 14.9095C8.66445 14.9584 8.76761 14.984 8.8724 14.984C8.97719 14.984 9.08035 14.9584 9.17263 14.9095C9.52278 14.7268 17.7448 10.3039 17.7448 4.83973C17.7433 3.55659 17.2254 2.32643 16.3046 1.41912C15.3839 0.511809 14.1355 0.00144625 12.8333 0ZM8.8724 13.6449C7.42588 12.8143 1.26749 9.03077 1.26749 4.83973C1.26874 3.88778 1.65307 2.97517 2.33618 2.30204C3.0193 1.62891 3.94544 1.2502 4.91151 1.24896C6.45229 1.24896 7.74592 2.05766 8.28619 3.35658C8.33393 3.47112 8.41516 3.56908 8.51954 3.63803C8.62392 3.70697 8.74674 3.74378 8.8724 3.74378C8.99806 3.74378 9.12088 3.70697 9.22526 3.63803C9.32964 3.56908 9.41086 3.47112 9.45861 3.35658C9.99888 2.05532 11.2925 1.24896 12.8333 1.24896C13.7994 1.2502 14.7255 1.62891 15.4086 2.30204C16.0917 2.97517 16.4761 3.88778 16.4773 4.83973C16.4773 9.02453 10.3173 12.8136 8.8724 13.6449Z" fill="#2A2A2A"/>
</svg>
