<svg width="64" height="64" viewBox="0 0 64 64" fill="none" xmlns="http://www.w3.org/2000/svg">
<path d="M0 12C0 5.37258 5.37258 0 12 0H52C58.6274 0 64 5.37258 64 12V52C64 58.6274 58.6274 64 52 64H12C5.37258 64 0 58.6274 0 52V12Z" fill="url(#paint0_linear_606_2652)"/>
<path d="M29.2486 36.6663C29.1296 36.2049 28.8891 35.7838 28.5521 35.4469C28.2151 35.1099 27.794 34.8694 27.3326 34.7503L19.1526 32.641C19.013 32.6014 18.8902 32.5173 18.8028 32.4016C18.7153 32.2859 18.668 32.1448 18.668 31.9997C18.668 31.8546 18.7153 31.7135 18.8028 31.5978C18.8902 31.482 19.013 31.398 19.1526 31.3583L27.3326 29.2477C27.7939 29.1288 28.2149 28.8884 28.5518 28.5517C28.8888 28.215 29.1294 27.7942 29.2486 27.333L31.3579 19.153C31.3971 19.0129 31.4811 18.8895 31.597 18.8015C31.7129 18.7136 31.8544 18.666 31.9999 18.666C32.1454 18.666 32.2869 18.7136 32.4028 18.8015C32.5188 18.8895 32.6027 19.0129 32.6419 19.153L34.7499 27.333C34.869 27.7944 35.1095 28.2155 35.4464 28.5525C35.7834 28.8895 36.2045 29.13 36.6659 29.249L44.8459 31.357C44.9866 31.3958 45.1107 31.4797 45.1991 31.5958C45.2875 31.7119 45.3353 31.8538 45.3353 31.9997C45.3353 32.1456 45.2875 32.2875 45.1991 32.4036C45.1107 32.5197 44.9866 32.6035 44.8459 32.6423L36.6659 34.7503C36.2045 34.8694 35.7834 35.1099 35.4464 35.4469C35.1095 35.7838 34.869 36.2049 34.7499 36.6663L32.6406 44.8463C32.6014 44.9865 32.5174 45.1099 32.4015 45.1978C32.2856 45.2858 32.1441 45.3333 31.9986 45.3333C31.8531 45.3333 31.7116 45.2858 31.5957 45.1978C31.4798 45.1099 31.3958 44.9865 31.3566 44.8463L29.2486 36.6663Z" stroke="white" stroke-width="2.66667" stroke-linecap="round" stroke-linejoin="round"/>
<path d="M42.666 20V25.3333" stroke="white" stroke-width="2.66667" stroke-linecap="round" stroke-linejoin="round"/>
<path d="M45.3333 22.667H40" stroke="white" stroke-width="2.66667" stroke-linecap="round" stroke-linejoin="round"/>
<path d="M21.334 38.666V41.3327" stroke="white" stroke-width="2.66667" stroke-linecap="round" stroke-linejoin="round"/>
<path d="M22.6667 40H20" stroke="white" stroke-width="2.66667" stroke-linecap="round" stroke-linejoin="round"/>
<defs>
<linearGradient id="paint0_linear_606_2652" x1="0" y1="32" x2="64" y2="32" gradientUnits="userSpaceOnUse">
<stop stop-color="#2B2B2B"/>
<stop offset="1" stop-color="#DDAE8C"/>
</linearGradient>
</defs>
</svg>
