<svg width="64" height="64" viewBox="0 0 64 64" fill="none" xmlns="http://www.w3.org/2000/svg">
<path d="M0 12C0 5.37258 5.37258 0 12 0H52C58.6274 0 64 5.37258 64 12V52C64 58.6274 58.6274 64 52 64H12C5.37258 64 0 58.6274 0 52V12Z" fill="url(#paint0_linear_606_2636)"/>
<path d="M34.0007 25.3333C34.3688 25.3333 34.6673 25.0349 34.6673 24.6667C34.6673 24.2985 34.3688 24 34.0007 24C33.6325 24 33.334 24.2985 33.334 24.6667C33.334 25.0349 33.6325 25.3333 34.0007 25.3333Z" fill="white" stroke="white" stroke-width="2.66667" stroke-linecap="round" stroke-linejoin="round"/>
<path d="M39.3327 30.6673C39.7009 30.6673 39.9993 30.3688 39.9993 30.0007C39.9993 29.6325 39.7009 29.334 39.3327 29.334C38.9645 29.334 38.666 29.6325 38.666 30.0007C38.666 30.3688 38.9645 30.6673 39.3327 30.6673Z" fill="white" stroke="white" stroke-width="2.66667" stroke-linecap="round" stroke-linejoin="round"/>
<path d="M27.3327 26.6673C27.7009 26.6673 27.9993 26.3688 27.9993 26.0007C27.9993 25.6325 27.7009 25.334 27.3327 25.334C26.9645 25.334 26.666 25.6325 26.666 26.0007C26.666 26.3688 26.9645 26.6673 27.3327 26.6673Z" fill="white" stroke="white" stroke-width="2.66667" stroke-linecap="round" stroke-linejoin="round"/>
<path d="M24.6667 33.3333C25.0349 33.3333 25.3333 33.0349 25.3333 32.6667C25.3333 32.2985 25.0349 32 24.6667 32C24.2985 32 24 32.2985 24 32.6667C24 33.0349 24.2985 33.3333 24.6667 33.3333Z" fill="white" stroke="white" stroke-width="2.66667" stroke-linecap="round" stroke-linejoin="round"/>
<path d="M31.9993 18.666C24.666 18.666 18.666 24.666 18.666 31.9993C18.666 39.3327 24.666 45.3327 31.9993 45.3327C33.234 45.3327 34.1967 44.338 34.1967 43.082C34.1967 42.4994 33.9567 41.9687 33.614 41.582C33.2273 41.1967 33.03 40.7127 33.03 40.082C33.025 39.7886 33.079 39.4971 33.189 39.225C33.299 38.9529 33.4626 38.7057 33.6702 38.4982C33.8777 38.2906 34.1249 38.127 34.397 38.017C34.6691 37.907 34.9606 37.853 35.254 37.858H37.9153C41.9834 37.858 45.322 34.5207 45.322 30.4527C45.286 24.0153 39.2807 18.666 31.9993 18.666Z" stroke="white" stroke-width="2.66667" stroke-linecap="round" stroke-linejoin="round"/>
<defs>
<linearGradient id="paint0_linear_606_2636" x1="0" y1="32" x2="64" y2="32" gradientUnits="userSpaceOnUse">
<stop stop-color="#2B2B2B"/>
<stop offset="1" stop-color="#DDAE8C"/>
</linearGradient>
</defs>
</svg>
