<svg width="48" height="48" viewBox="0 0 48 48" fill="none" xmlns="http://www.w3.org/2000/svg">
<rect width="48" height="48" rx="12" fill="#DDA23C" fill-opacity="0.1"/>
<path d="M14.0625 24.3474C13.9792 24.1229 13.9792 23.8759 14.0625 23.6514C14.8742 21.6832 16.252 20.0004 18.0213 18.8163C19.7905 17.6321 21.8715 17 24.0005 17C26.1295 17 28.2105 17.6321 29.9797 18.8163C31.749 20.0004 33.1268 21.6832 33.9385 23.6514C34.0218 23.8759 34.0218 24.1229 33.9385 24.3474C33.1268 26.3155 31.749 27.9983 29.9797 29.1825C28.2105 30.3666 26.1295 30.9988 24.0005 30.9988C21.8715 30.9988 19.7905 30.3666 18.0213 29.1825C16.252 27.9983 14.8742 26.3155 14.0625 24.3474Z" stroke="#C98A5C" stroke-width="2" stroke-linecap="round" stroke-linejoin="round"/>
<path d="M24 27C25.6569 27 27 25.6569 27 24C27 22.3431 25.6569 21 24 21C22.3431 21 21 22.3431 21 24C21 25.6569 22.3431 27 24 27Z" stroke="#C98A5C" stroke-width="2" stroke-linecap="round" stroke-linejoin="round"/>
</svg>
