<svg width="25" height="24" viewBox="0 0 25 24" fill="none" xmlns="http://www.w3.org/2000/svg">
<path d="M12.0469 11.5312C12.6562 11.5312 13.1719 12.0469 13.1719 12.6562C13.2188 17.3438 12.4219 20.9531 11.7656 23.2031C11.625 23.7188 11.2031 24 10.6875 24C9.70312 24 9.46875 23.0625 9.60938 22.5938C10.5 19.3125 10.9688 16.0781 10.9219 12.6562C10.9219 12.0469 11.3906 11.5312 12.0469 11.5312ZM12 7.73438C14.6719 7.78125 16.875 9.9375 16.9219 12.5156C16.9219 14.9062 16.7812 17.3438 16.3594 19.6875C16.3594 19.875 16.0312 20.7656 15.0938 20.5781C14.4844 20.4844 14.0625 19.9219 14.1562 19.3125C14.5312 17.1094 14.6719 14.8125 14.6719 12.5625C14.625 11.1562 13.4062 9.98438 11.9531 9.98438C10.3594 9.98438 9.375 11.2031 9.42188 12.4219C9.42188 14.8594 9.23438 17.25 8.71875 19.5938C8.625 20.2031 8.01562 20.5781 7.40625 20.4844C6.79688 20.3438 6.42188 19.7344 6.51562 19.125C6.98438 16.9688 7.17188 14.7188 7.17188 12.4688C7.125 9.9375 9.14062 7.73438 12 7.73438ZM6.79688 6.79688C7.26562 7.17188 7.35938 7.875 6.98438 8.39062C6.09375 9.46875 5.625 10.7812 5.67188 12.1875C5.67188 14.0625 5.53125 15.9844 5.20312 17.8594C5.15625 18.0938 4.82812 18.9375 3.89062 18.75C3.28125 18.6562 2.85938 18.0938 2.95312 17.4375C3.28125 15.75 3.42188 13.9688 3.42188 12.1875C3.375 10.3125 4.03125 8.4375 5.20312 6.9375C5.625 6.46875 6.32812 6.42188 6.79688 6.79688ZM11.9531 3.89062C16.6875 3.9375 20.5781 7.78125 20.6719 12.375C20.6719 12.6094 20.6719 12.7969 20.6719 13.0312C20.6719 14.7188 20.5781 16.3594 20.3906 18C20.3438 18.4688 19.9219 19.0781 19.125 18.9844C18.5156 18.9375 18.0938 18.375 18.1406 17.7656C18.3281 15.9844 18.4219 14.2031 18.4219 12.4219C18.375 9 15.4219 6.1875 11.9062 6.14062C11.3438 6.14062 10.8281 6.1875 10.3125 6.28125C9.70312 6.42188 9.09375 6.04688 8.95312 5.4375C8.8125 4.875 9.1875 4.26562 9.79688 4.125C10.5 3.9375 11.2031 3.84375 11.9531 3.89062ZM23.7656 9.5625C24.0469 10.875 24.0469 11.9062 24 12.9375C24 13.5938 23.5312 14.0625 22.875 14.0625C22.2656 14.0625 21.75 13.5469 21.75 12.9375C21.7969 11.8125 21.75 11.0625 21.5625 10.0312C21.4219 9.42188 21.7969 8.85938 22.4062 8.71875C23.0156 8.57812 23.625 8.95312 23.7656 9.5625ZM21.8438 5.29688C22.2188 5.8125 22.0781 6.51562 21.6094 6.89062C21.0938 7.21875 20.3906 7.125 20.0156 6.60938C18.1406 3.9375 15.0938 2.34375 11.8594 2.29688C9.1875 2.25 6.75 3.23438 4.92188 5.01562C3.1875 6.79688 2.25 9.09375 2.29688 11.5312L2.25 12.6562C2.25 13.2656 1.73438 13.7344 1.17188 13.7344C1.125 13.7344 1.125 13.7344 1.125 13.7344C0.515625 13.7344 0 13.2188 0.046875 12.6094V11.5781C0 8.53125 1.17188 5.625 3.32812 3.42188C5.57812 1.17188 8.625 0 11.8594 0.046875C15.8438 0.09375 19.5938 2.0625 21.8438 5.29688Z" fill="#C89F82"/>
</svg>
