<svg width="18" height="18" viewBox="0 0 18 18" fill="none" xmlns="http://www.w3.org/2000/svg">
<path d="M2.7854 2.286C2.71794 2.25307 2.64213 2.24123 2.56785 2.25202C2.49357 2.26281 2.42426 2.29573 2.36896 2.3465C2.31367 2.39726 2.27495 2.4635 2.25786 2.53659C2.24077 2.60968 2.24609 2.68623 2.27315 2.75625L4.4054 8.4765C4.53115 8.81417 4.53115 9.18582 4.4054 9.5235L2.2739 15.2437C2.24698 15.3137 2.24172 15.3901 2.25881 15.4631C2.27589 15.536 2.31452 15.6021 2.36969 15.6529C2.42485 15.7036 2.49399 15.7365 2.56813 15.7474C2.64227 15.7583 2.71797 15.7467 2.7854 15.714L16.2854 9.339C16.3496 9.30863 16.4039 9.26064 16.4419 9.20062C16.4799 9.14061 16.5001 9.07103 16.5001 9C16.5001 8.92896 16.4799 8.85938 16.4419 8.79937C16.4039 8.73935 16.3496 8.69137 16.2854 8.661L2.7854 2.286Z" stroke="white" stroke-width="2" stroke-linecap="round" stroke-linejoin="round"/>
<path d="M4.5 9H16.5" stroke="white" stroke-width="2" stroke-linecap="round" stroke-linejoin="round"/>
</svg>
