<svg width="18" height="18" viewBox="0 0 18 18" fill="none" xmlns="http://www.w3.org/2000/svg">
<g clip-path="url(#clip0_3_976)">
<path d="M7.66055 3.72305L11.9777 8.04023C12.2309 8.29336 12.375 8.64141 12.375 9C12.375 9.35859 12.2309 9.70664 11.9777 9.95977L7.66055 14.277C7.43555 14.502 7.1332 14.625 6.8168 14.625C6.15937 14.625 5.625 14.0906 5.625 13.4332V11.25H1.125C0.502734 11.25 0 10.7473 0 10.125V7.875C0 7.25273 0.502734 6.75 1.125 6.75H5.625V4.5668C5.625 3.90937 6.15937 3.375 6.8168 3.375C7.1332 3.375 7.43555 3.50156 7.66055 3.72305ZM12.375 14.625H14.625C15.2473 14.625 15.75 14.1223 15.75 13.5V4.5C15.75 3.87773 15.2473 3.375 14.625 3.375H12.375C11.7527 3.375 11.25 2.87227 11.25 2.25C11.25 1.62773 11.7527 1.125 12.375 1.125H14.625C16.4883 1.125 18 2.63672 18 4.5V13.5C18 15.3633 16.4883 16.875 14.625 16.875H12.375C11.7527 16.875 11.25 16.3723 11.25 15.75C11.25 15.1277 11.7527 14.625 12.375 14.625Z" fill="white"/>
</g>
<defs>
<clipPath id="clip0_3_976">
<path d="M0 0H18V18H0V0Z" fill="white"/>
</clipPath>
</defs>
</svg>
