<svg width="16" height="16" viewBox="0 0 16 16" fill="none" xmlns="http://www.w3.org/2000/svg">
<path d="M6.62119 10.3269C6.56171 10.0963 6.44152 9.8859 6.27314 9.71752C6.10476 9.54914 5.89433 9.42896 5.66376 9.36947L1.57616 8.31543C1.50642 8.29563 1.44504 8.25363 1.40134 8.19579C1.35763 8.13796 1.33398 8.06744 1.33398 7.99495C1.33398 7.92245 1.35763 7.85194 1.40134 7.7941C1.44504 7.73627 1.50642 7.69426 1.57616 7.67447L5.66376 6.61976C5.89425 6.56033 6.10462 6.44024 6.273 6.27199C6.44137 6.10373 6.56161 5.89344 6.62119 5.66299L7.67524 1.57539C7.69483 1.50537 7.73679 1.44369 7.79472 1.39975C7.85264 1.35581 7.92335 1.33203 7.99605 1.33203C8.06875 1.33203 8.13946 1.35581 8.19739 1.39975C8.25531 1.44369 8.29727 1.50537 8.31686 1.57539L9.37024 5.66299C9.42973 5.89356 9.54991 6.10399 9.71829 6.27237C9.88668 6.44075 10.0971 6.56094 10.3277 6.62042L14.4153 7.6738C14.4856 7.69319 14.5476 7.73511 14.5917 7.79312C14.6359 7.85113 14.6598 7.92203 14.6598 7.99495C14.6598 8.06786 14.6359 8.13877 14.5917 8.19678C14.5476 8.25479 14.4856 8.2967 14.4153 8.31609L10.3277 9.36947C10.0971 9.42896 9.88668 9.54914 9.71829 9.71752C9.54991 9.8859 9.42973 10.0963 9.37024 10.3269L8.3162 14.4145C8.2966 14.4845 8.25464 14.5462 8.19672 14.5901C8.1388 14.6341 8.06809 14.6579 7.99539 14.6579C7.92268 14.6579 7.85197 14.6341 7.79405 14.5901C7.73613 14.5462 7.69417 14.4845 7.67457 14.4145L6.62119 10.3269Z" stroke="#E6B999" stroke-width="1.3325" stroke-linecap="round" stroke-linejoin="round"/>
<path d="M13.3252 1.99902V4.66412" stroke="#E6B999" stroke-width="1.3325" stroke-linecap="round" stroke-linejoin="round"/>
<path d="M14.6573 3.33105H11.9922" stroke="#E6B999" stroke-width="1.3325" stroke-linecap="round" stroke-linejoin="round"/>
<path d="M2.66504 11.3262V12.6587" stroke="#E6B999" stroke-width="1.3325" stroke-linecap="round" stroke-linejoin="round"/>
<path d="M3.33157 11.9922H1.99902" stroke="#E6B999" stroke-width="1.3325" stroke-linecap="round" stroke-linejoin="round"/>
</svg>
