<svg width="96" height="96" viewBox="0 0 96 96" fill="none" xmlns="http://www.w3.org/2000/svg">
<path d="M0 12C0 5.37258 5.37258 0 12 0H84C90.6274 0 96 5.37258 96 12V84C96 90.6274 90.6274 96 84 96H12C5.37258 96 0 90.6274 0 84V12Z" fill="#DDA23C" fill-opacity="0.1"/>
<path d="M43.8739 55.0005C43.6953 54.3084 43.3346 53.6767 42.8291 53.1713C42.3237 52.6658 41.692 52.3051 40.9999 52.1265L28.7299 48.9625C28.5205 48.9031 28.3363 48.777 28.2051 48.6034C28.0739 48.4298 28.0029 48.2181 28.0029 48.0005C28.0029 47.7829 28.0739 47.5712 28.2051 47.3976C28.3363 47.224 28.5205 47.0979 28.7299 47.0385L40.9999 43.8725C41.6918 43.6941 42.3233 43.3336 42.8287 42.8286C43.3341 42.3235 43.695 41.6923 43.8739 41.0005L47.0379 28.7305C47.0967 28.5203 47.2226 28.3352 47.3965 28.2033C47.5704 28.0714 47.7826 28 48.0009 28C48.2191 28 48.4314 28.0714 48.6052 28.2033C48.7791 28.3352 48.9051 28.5203 48.9639 28.7305L52.1259 41.0005C52.3044 41.6926 52.6652 42.3243 53.1706 42.8297C53.6761 43.3352 54.3077 43.6959 54.9999 43.8745L67.2699 47.0365C67.4809 47.0947 67.667 47.2205 67.7996 47.3947C67.9322 47.5688 68.004 47.7816 68.004 48.0005C68.004 48.2194 67.9322 48.4322 67.7996 48.6063C67.667 48.7805 67.4809 48.9063 67.2699 48.9645L54.9999 52.1265C54.3077 52.3051 53.6761 52.6658 53.1706 53.1713C52.6652 53.6767 52.3044 54.3084 52.1259 55.0005L48.9619 67.2705C48.9031 67.4807 48.7771 67.6658 48.6032 67.7977C48.4294 67.9296 48.2171 68.001 47.9989 68.001C47.7806 68.001 47.5684 67.9296 47.3945 67.7977C47.2206 67.6658 47.0947 67.4807 47.0359 67.2705L43.8739 55.0005Z" stroke="#C98A5C" stroke-width="4" stroke-linecap="round" stroke-linejoin="round"/>
<path d="M64 30V38" stroke="#C98A5C" stroke-width="4" stroke-linecap="round" stroke-linejoin="round"/>
<path d="M68 34H60" stroke="#C98A5C" stroke-width="4" stroke-linecap="round" stroke-linejoin="round"/>
<path d="M32 58V62" stroke="#C98A5C" stroke-width="4" stroke-linecap="round" stroke-linejoin="round"/>
<path d="M34 60H30" stroke="#C98A5C" stroke-width="4" stroke-linecap="round" stroke-linejoin="round"/>
</svg>
